<svg xmlns="http://www.w3.org/2000/svg" viewBox="0 0 512 512" role="img" aria-labelledby="title desc">
  <title id="title">ATAWI COMEDY mark</title>
  <desc id="desc">Spotlight and speech bubble mark for ATAWI COMEDY.</desc>
  <defs>
    <linearGradient id="bg" x1="0" x2="1" y1="0" y2="1">
      <stop offset="0" stop-color="#101626"/>
      <stop offset="1" stop-color="#182033"/>
    </linearGradient>
    <linearGradient id="spot" x1="0" x2="1" y1="0" y2="1">
      <stop offset="0" stop-color="#FFE19A"/>
      <stop offset="1" stop-color="#F6C453"/>
    </linearGradient>
  </defs>
  <rect width="512" height="512" rx="112" fill="url(#bg)"/>
  <path d="M148 430c22-152 58-250 108-294 50 44 86 142 108 294H148z" fill="url(#spot)"/>
  <path d="M134 216c0-60 44-104 113-104h72c52 0 88 32 88 77s-36 77-88 77h-78l-90 82v-82h-17v-50z" fill="#FFF7E8"/>
  <path d="M210 174h91c18 0 30 11 30 27s-12 27-30 27h-91v-54z" fill="#182033"/>
  <path d="M142 98c-38 30-60 70-66 116M370 98c38 30 60 70 66 116" stroke="#F27A5E" stroke-width="24" stroke-linecap="round"/>
  <text x="256" y="420" text-anchor="middle" fill="#101626" font-family="Noto Sans JP, Yu Gothic, Meiryo, Arial, sans-serif" font-size="86" font-weight="900">AC</text>
</svg>
