<svg xmlns="http://www.w3.org/2000/svg" viewBox="0 0 620 620" role="img" aria-labelledby="title desc">
  <title id="title">ATAWI COMEDY</title>
  <desc id="desc">Vertical stage logo for ATAWI COMEDY.</desc>
  <defs>
    <linearGradient id="bg" x1="0" x2="1" y1="0" y2="1">
      <stop offset="0" stop-color="#101626"/>
      <stop offset="1" stop-color="#182033"/>
    </linearGradient>
    <linearGradient id="spot" x1="0" x2="1" y1="0" y2="1">
      <stop offset="0" stop-color="#FFE19A"/>
      <stop offset="1" stop-color="#F6C453"/>
    </linearGradient>
  </defs>
  <rect x="24" y="24" width="572" height="572" rx="48" fill="url(#bg)"/>
  <circle cx="310" cy="190" r="118" fill="#FFF7E8" opacity=".08"/>
  <path d="M188 424c22-150 62-248 122-294 60 46 100 144 122 294H188z" fill="url(#spot)"/>
  <path d="M176 224c0-62 46-106 118-106h74c54 0 90 33 90 79s-36 79-90 79h-80l-92 82v-82h-20v-52z" fill="#FFF7E8"/>
  <path d="M253 181h95c18 0 31 12 31 28s-13 28-31 28h-95v-56z" fill="#182033"/>
  <path d="M174 102c-40 32-64 76-70 126M446 102c40 32 64 76 70 126" stroke="#F27A5E" stroke-width="24" stroke-linecap="round"/>
  <text x="310" y="484" text-anchor="middle" fill="#FFF7E8" font-family="Noto Sans JP, Yu Gothic, Meiryo, Arial, sans-serif" font-size="64" font-weight="900">ATAWI</text>
  <text x="310" y="548" text-anchor="middle" fill="#F6C453" font-family="Noto Sans JP, Yu Gothic, Meiryo, Arial, sans-serif" font-size="64" font-weight="900">COMEDY</text>
</svg>
