<svg xmlns="http://www.w3.org/2000/svg" viewBox="0 0 760 180" role="img" aria-labelledby="title desc">
  <title id="title">ATAWI COMEDY</title>
  <desc id="desc">Small theater inspired ATAWI COMEDY horizontal logo.</desc>
  <defs>
    <linearGradient id="stage" x1="0" x2="1" y1="0" y2="1">
      <stop offset="0" stop-color="#101626"/>
      <stop offset="1" stop-color="#182033"/>
    </linearGradient>
    <linearGradient id="spot" x1="0" x2="1" y1="0" y2="1">
      <stop offset="0" stop-color="#FFE19A"/>
      <stop offset="1" stop-color="#F6C453"/>
    </linearGradient>
  </defs>
  <g fill="none" fill-rule="evenodd">
    <rect x="16" y="18" width="132" height="132" rx="28" fill="url(#stage)"/>
    <path d="M48 124c8-40 20-66 36-78 16 12 28 38 36 78H48z" fill="url(#spot)" opacity=".96"/>
    <path d="M58 76c0-18 13-31 33-31h20c15 0 25 9 25 22s-10 22-25 22H90l-24 24V89h-8V76z" fill="#FFF7E8"/>
    <path d="M80 65h24c5 0 8 3 8 7s-3 7-8 7H80V65z" fill="#182033"/>
    <path d="M56 40c-10 8-16 19-18 32M128 40c10 8 16 19 18 32" stroke="#F27A5E" stroke-width="7" stroke-linecap="round"/>
    <text x="178" y="80" fill="#182033" font-family="Noto Sans JP, Yu Gothic, Meiryo, Arial, sans-serif" font-size="52" font-weight="900" letter-spacing="0">ATAWI</text>
    <text x="178" y="130" fill="#182033" font-family="Noto Sans JP, Yu Gothic, Meiryo, Arial, sans-serif" font-size="52" font-weight="900" letter-spacing="0">COMEDY</text>
    <path d="M444 116h164" stroke="#F6C453" stroke-width="10" stroke-linecap="round"/>
    <path d="M622 116c20-14 36-22 50-25-10 15-24 29-42 42" stroke="#F27A5E" stroke-width="9" stroke-linecap="round"/>
    <text x="448" y="94" fill="#69717B" font-family="Noto Sans JP, Yu Gothic, Meiryo, Arial, sans-serif" font-size="23" font-weight="800">笑いと記憶をたどるお笑い帖</text>
  </g>
</svg>
